# Blender v2.83.0 OBJ File: ''
# www.blender.org
mtllib selection.mtl
o Cube
v 0.492783 0.492783 -0.492783
v 0.507217 0.507217 -0.507217
v 0.492783 -0.492783 -0.492783
v 0.507217 -0.507217 -0.507217
v 0.492783 0.492783 0.492783
v 0.507217 0.507217 0.507217
v 0.492783 -0.492783 0.492783
v 0.507217 -0.507217 0.507217
v -0.492783 0.492783 -0.492783
v -0.507217 0.507217 -0.507217
v -0.492783 -0.492783 -0.492783
v -0.507217 -0.507217 -0.507217
v -0.492783 0.492783 0.492783
v -0.507217 0.507217 0.507217
v -0.492783 -0.492783 0.492783
v -0.507217 -0.507217 0.507217
v 0.487500 0.500000 -0.487500
v -0.487500 0.500000 -0.487500
v -0.487500 0.500000 0.487500
v 0.487500 0.500000 0.487500
v 0.487500 -0.487500 0.500000
v 0.487500 0.487500 0.500000
v -0.487500 0.487500 0.500000
v -0.487500 -0.487500 0.500000
v -0.500000 -0.487500 0.487500
v -0.500000 0.487500 0.487500
v -0.500000 0.487500 -0.487500
v -0.500000 -0.487500 -0.487500
v -0.487500 -0.500000 -0.487500
v 0.487500 -0.500000 -0.487500
v 0.487500 -0.500000 0.487500
v -0.487500 -0.500000 0.487500
v 0.500000 -0.487500 -0.487500
v 0.500000 0.487500 -0.487500
v 0.500000 0.487500 0.487500
v 0.500000 -0.487500 0.487500
v -0.487500 -0.487500 -0.500000
v -0.487500 0.487500 -0.500000
v 0.487500 0.487500 -0.500000
v 0.487500 -0.487500 -0.500000
vt 0.875000 0.500000
vt 0.625000 0.500000
vt 0.625000 0.500000
vt 0.875000 0.500000
vt 0.875000 0.750000
vt 0.875000 0.500000
vt 0.875000 0.750000
vt 0.625000 0.750000
vt 0.875000 0.750000
vt 0.625000 0.750000
vt 0.625000 0.750000
vt 0.625000 0.500000
vt 0.625000 0.750000
vt 0.375000 0.750000
vt 0.375000 0.750000
vt 0.625000 1.000000
vt 0.625000 1.000000
vt 0.375000 1.000000
vt 0.625000 1.000000
vt 0.375000 1.000000
vt 0.375000 1.000000
vt 0.375000 0.750000
vt 0.625000 0.000000
vt 0.375000 0.000000
vt 0.375000 0.000000
vt 0.625000 0.000000
vt 0.625000 0.250000
vt 0.625000 0.000000
vt 0.625000 0.250000
vt 0.375000 0.250000
vt 0.625000 0.250000
vt 0.375000 0.250000
vt 0.375000 0.250000
vt 0.375000 0.000000
vt 0.375000 0.500000
vt 0.125000 0.500000
vt 0.125000 0.500000
vt 0.375000 0.500000
vt 0.375000 0.750000
vt 0.375000 0.500000
vt 0.125000 0.750000
vt 0.125000 0.750000
vt 0.125000 0.750000
vt 0.125000 0.500000
vt 0.625000 0.500000
vt 0.375000 0.500000
vt 0.625000 0.750000
vt 0.375000 0.750000
vt 0.625000 0.250000
vt 0.375000 0.250000
vt 0.625000 0.500000
vt 0.375000 0.500000
vn 0.0000 -0.5907 0.8069
vn 0.0000 0.9391 0.3437
vn 0.8069 -0.5907 0.0000
vn 0.3437 0.9391 0.0000
vn 0.0000 -0.5907 -0.8069
vn 0.0000 0.9391 -0.3437
vn -0.8069 -0.5907 0.0000
vn -0.3437 0.9391 0.0000
vn -0.8069 0.0000 -0.5907
vn -0.3437 0.0000 0.9391
vn 0.0000 -0.8069 -0.5907
vn 0.0000 -0.3437 0.9391
vn 0.8069 0.0000 -0.5907
vn 0.3437 0.0000 0.9391
vn 0.0000 0.8069 -0.5907
vn 0.0000 0.3437 0.9391
vn 0.5907 0.0000 -0.8069
vn -0.9391 0.0000 -0.3437
vn 0.5907 -0.8069 0.0000
vn -0.9391 -0.3437 0.0000
vn 0.5907 0.0000 0.8069
vn -0.9391 0.0000 0.3437
vn 0.5907 0.8069 0.0000
vn -0.9391 0.3437 0.0000
vn 0.0000 0.5907 0.8069
vn 0.0000 -0.9391 0.3437
vn -0.8069 0.5907 0.0000
vn -0.3437 -0.9391 0.0000
vn 0.0000 0.5907 -0.8069
vn 0.0000 -0.9391 -0.3437
vn 0.8069 0.5907 0.0000
vn 0.3437 -0.9391 0.0000
vn -0.5907 0.0000 0.8069
vn 0.9391 0.0000 0.3437
vn -0.5907 -0.8069 0.0000
vn 0.9391 -0.3437 0.0000
vn -0.5907 0.0000 -0.8069
vn 0.9391 0.0000 -0.3437
vn -0.5907 0.8069 0.0000
vn 0.9391 0.3437 0.0000
vn 0.8069 0.0000 0.5907
vn 0.3437 0.0000 -0.9391
vn 0.0000 -0.8069 0.5907
vn 0.0000 -0.3437 -0.9391
vn -0.8069 0.0000 0.5907
vn -0.3437 0.0000 -0.9391
vn 0.0000 0.8069 0.5907
vn 0.0000 0.3437 -0.9391
usemtl Material
s off
f 18/1/1 1/2/1 17/3/1
f 17/3/2 10/4/2 18/1/2
f 19/5/3 9/6/3 18/1/3
f 18/1/4 14/7/4 19/5/4
f 20/8/5 13/9/5 19/5/5
f 19/5/6 6/10/6 20/8/6
f 17/3/7 5/11/7 20/8/7
f 20/8/8 2/12/8 17/3/8
f 22/13/9 7/14/9 21/15/9
f 21/15/10 6/10/10 22/13/10
f 23/16/11 5/11/11 22/13/11
f 22/13/12 14/17/12 23/16/12
f 24/18/13 13/19/13 23/16/13
f 23/16/14 16/20/14 24/18/14
f 21/15/15 15/21/15 24/18/15
f 24/18/16 8/22/16 21/15/16
f 26/23/17 15/24/17 25/25/17
f 25/25/18 14/26/18 26/23/18
f 27/27/19 13/28/19 26/23/19
f 26/23/20 10/29/20 27/27/20
f 28/30/21 9/31/21 27/27/21
f 27/27/22 12/32/22 28/30/22
f 25/25/23 11/33/23 28/30/23
f 28/30/24 16/34/24 25/25/24
f 30/35/25 11/36/25 29/37/25
f 29/37/26 4/38/26 30/35/26
f 31/39/27 3/40/27 30/35/27
f 30/35/28 8/22/28 31/39/28
f 32/41/29 7/14/29 31/39/29
f 31/39/30 16/42/30 32/41/30
f 29/37/31 15/43/31 32/41/31
f 32/41/32 12/44/32 29/37/32
f 34/45/33 3/40/33 33/46/33
f 33/46/34 2/12/34 34/45/34
f 35/47/35 1/2/35 34/45/35
f 34/45/36 6/10/36 35/47/36
f 36/48/37 5/11/37 35/47/37
f 35/47/38 8/22/38 36/48/38
f 33/46/39 7/14/39 36/48/39
f 36/48/40 4/38/40 33/46/40
f 38/49/41 11/33/41 37/50/41
f 37/50/42 10/29/42 38/49/42
f 39/51/43 9/31/43 38/49/43
f 38/49/44 2/12/44 39/51/44
f 40/52/45 1/2/45 39/51/45
f 39/51/46 4/38/46 40/52/46
f 37/50/47 3/40/47 40/52/47
f 40/52/48 12/32/48 37/50/48
f 18/1/1 9/6/1 1/2/1
f 17/3/2 2/12/2 10/4/2
f 19/5/3 13/9/3 9/6/3
f 18/1/4 10/4/4 14/7/4
f 20/8/5 5/11/5 13/9/5
f 19/5/6 14/7/6 6/10/6
f 17/3/7 1/2/7 5/11/7
f 20/8/8 6/10/8 2/12/8
f 22/13/9 5/11/9 7/14/9
f 21/15/10 8/22/10 6/10/10
f 23/16/11 13/19/11 5/11/11
f 22/13/12 6/10/12 14/17/12
f 24/18/13 15/21/13 13/19/13
f 23/16/14 14/17/14 16/20/14
f 21/15/15 7/14/15 15/21/15
f 24/18/16 16/20/16 8/22/16
f 26/23/17 13/28/17 15/24/17
f 25/25/18 16/34/18 14/26/18
f 27/27/19 9/31/19 13/28/19
f 26/23/20 14/26/20 10/29/20
f 28/30/21 11/33/21 9/31/21
f 27/27/22 10/29/22 12/32/22
f 25/25/23 15/24/23 11/33/23
f 28/30/24 12/32/24 16/34/24
f 30/35/25 3/40/25 11/36/25
f 29/37/26 12/44/26 4/38/26
f 31/39/27 7/14/27 3/40/27
f 30/35/28 4/38/28 8/22/28
f 32/41/29 15/43/29 7/14/29
f 31/39/30 8/22/30 16/42/30
f 29/37/31 11/36/31 15/43/31
f 32/41/32 16/42/32 12/44/32
f 34/45/33 1/2/33 3/40/33
f 33/46/34 4/38/34 2/12/34
f 35/47/35 5/11/35 1/2/35
f 34/45/36 2/12/36 6/10/36
f 36/48/37 7/14/37 5/11/37
f 35/47/38 6/10/38 8/22/38
f 33/46/39 3/40/39 7/14/39
f 36/48/40 8/22/40 4/38/40
f 38/49/41 9/31/41 11/33/41
f 37/50/42 12/32/42 10/29/42
f 39/51/43 1/2/43 9/31/43
f 38/49/44 10/29/44 2/12/44
f 40/52/45 3/40/45 1/2/45
f 39/51/46 2/12/46 4/38/46
f 37/50/47 11/33/47 3/40/47
f 40/52/48 4/38/48 12/32/48
